<svg width="375" height="662" viewBox="0 0 375 662" fill="none" xmlns="http://www.w3.org/2000/svg">
<g clip-path="url(#clip0)">
<path d="M213.75 77.6676L187 62.2235L160.25 77.6676L-19.0173 181.168L-45.7673 196.612V227.5V434.5V465.388L-19.0173 480.832L160.25 584.332L187 599.776L213.75 584.332L393.017 480.832L419.767 465.388V434.5V227.5V196.612L393.017 181.168L213.75 77.6676Z" fill="black" stroke="#EFC48F" stroke-width="107"/>
<path d="M187 537.5L364.5 435H9.5L98.25 486.25L187 537.5Z" stroke="#D9A86C"/>
<path d="M187 331.5L364.426 228H186.963H9.50012L187 331.5Z" stroke="#D9A86C"/>
<rect x="188.053" y="327" width="140.716" height="140.716" transform="rotate(45.3184 188.053 327)" fill="black"/>
<line x1="187.5" y1="331" x2="187.5" y2="537" stroke="#D9A86C"/>
<path d="M233.884 420.205C231.315 421.965 228.685 423.147 225.994 423.75C223.304 424.352 220.647 424.362 218.024 423.781C215.401 423.199 212.86 422.018 210.399 420.239C207.949 418.401 205.675 415.95 203.577 412.888C201.478 409.826 200.079 406.803 199.378 403.818C198.688 400.773 198.58 397.899 199.054 395.194C199.529 392.49 200.532 389.992 202.065 387.7C203.598 385.408 205.561 383.442 207.954 381.802C209.467 380.765 210.895 379.942 212.236 379.333C213.613 378.7 214.837 378.223 215.91 377.901C217.018 377.556 217.95 377.331 218.706 377.226C219.462 377.122 219.994 377.068 220.302 377.064L221.718 382.3C221.257 382.306 220.642 382.391 219.875 382.555C219.108 382.718 218.253 382.942 217.31 383.227C216.402 383.487 215.442 383.86 214.431 384.346C213.43 384.773 212.472 385.301 211.557 385.928C209.621 387.254 208.108 388.783 207.018 390.513C205.928 392.242 205.271 394.115 205.049 396.13C204.826 398.144 205.043 400.272 205.698 402.512C206.365 404.693 207.471 406.909 209.014 409.162C210.51 411.344 212.119 413.164 213.842 414.621C215.6 416.054 217.435 417.072 219.348 417.675C221.237 418.242 223.18 418.359 225.176 418.026C227.207 417.669 229.243 416.791 231.284 415.392C233.642 413.776 235.427 412.191 236.637 410.637C237.848 409.083 238.708 407.847 239.217 406.929L243.431 410.248C243.306 410.593 243.023 411.123 242.582 411.839C242.117 412.519 241.494 413.308 240.713 414.206C239.931 415.103 238.967 416.074 237.821 417.119C236.675 418.163 235.362 419.192 233.884 420.205ZM256.897 398.071C258.059 397.275 259.067 396.558 259.923 395.92C260.79 395.222 261.474 394.598 261.976 394.047L256.368 385.865C255.896 385.93 255.219 386.187 254.337 386.636C253.466 387.026 252.467 387.607 251.341 388.379C250.602 388.885 249.846 389.481 249.074 390.165C248.337 390.825 247.737 391.573 247.274 392.407C246.823 393.182 246.573 394.026 246.526 394.937C246.454 395.814 246.744 396.728 247.395 397.678C248.601 399.438 250.008 400.284 251.617 400.216C253.202 400.112 254.962 399.398 256.897 398.071ZM239.615 373.759C241.586 372.409 243.421 371.539 245.121 371.15C246.831 370.702 248.416 370.676 249.877 371.072C251.349 371.408 252.707 372.106 253.951 373.167C255.172 374.193 256.312 375.48 257.374 377.029L269.132 394.186C268.758 394.546 268.232 395.062 267.554 395.733C266.887 396.345 266.115 397.03 265.237 397.787C264.359 398.544 263.381 399.343 262.303 400.185C261.285 401.039 260.23 401.839 259.139 402.587C257.59 403.648 256.056 404.467 254.537 405.042C253.018 405.618 251.554 405.897 250.145 405.88C248.713 405.827 247.346 405.418 246.047 404.654C244.747 403.889 243.554 402.715 242.469 401.132C241.432 399.618 240.838 398.111 240.689 396.61C240.575 395.085 240.816 393.626 241.414 392.234C242.012 390.841 242.906 389.504 244.096 388.223C245.287 386.941 246.657 385.77 248.205 384.709C248.698 384.371 249.233 384.056 249.809 383.765C250.361 383.438 250.902 383.171 251.432 382.963C251.973 382.696 252.443 382.477 252.843 382.306C253.244 382.135 253.526 382.019 253.691 381.958L252.75 380.585C252.196 379.776 251.565 379.044 250.858 378.391C250.128 377.702 249.328 377.215 248.461 376.93C247.569 376.61 246.598 376.552 245.547 376.754C244.508 376.898 243.354 377.404 242.087 378.272C240.468 379.382 239.127 380.482 238.064 381.572C237.013 382.603 236.272 383.447 235.842 384.104L232.476 380.437C232.916 379.721 233.791 378.733 235.101 377.474C236.386 376.179 237.891 374.941 239.615 373.759ZM268.537 354.094C268.959 353.805 269.458 353.514 270.034 353.223C270.622 352.872 271.215 352.569 271.816 352.312C272.392 352.021 272.927 351.783 273.422 351.599C273.928 351.356 274.31 351.198 274.57 351.123L276.656 355.978C276.172 356.103 275.412 356.391 274.377 356.842C273.352 357.234 272.136 357.912 270.728 358.877C269.813 359.504 268.97 360.237 268.2 361.075C267.441 361.854 266.944 362.375 266.711 362.638L282.522 385.709L277.612 389.073L259.594 362.783C260.466 361.564 261.644 360.188 263.127 358.655C264.587 357.085 266.39 355.565 268.537 354.094ZM313.305 360.577C313.076 361.148 312.502 362.085 311.584 363.387C310.676 364.629 309.413 365.805 307.794 366.914C306.14 368.048 304.393 368.857 302.553 369.342C300.748 369.803 298.927 369.862 297.088 369.519C295.225 369.14 293.41 368.341 291.643 367.121C289.876 365.901 288.208 364.147 286.64 361.86C285.266 359.854 284.311 357.818 283.775 355.754C283.216 353.655 283.089 351.621 283.395 349.652C283.713 347.625 284.469 345.71 285.665 343.907C286.837 342.07 288.461 340.439 290.537 339.016C292.825 337.449 294.934 336.262 296.865 335.456C298.806 334.591 300.454 333.901 301.809 333.387L318.596 357.882C321.491 362.106 322.498 365.915 321.618 369.311C320.739 372.707 318.082 375.925 313.647 378.964C311.923 380.146 310.189 381.127 308.448 381.906C306.742 382.662 305.193 383.232 303.801 383.617L301.768 378.726C303.019 378.437 304.445 377.952 306.045 377.268C307.705 376.596 309.31 375.729 310.858 374.668C313.779 372.666 315.476 370.65 315.947 368.621C316.453 366.567 315.838 364.273 314.101 361.739L313.305 360.577ZM299.287 340.236C298.698 340.433 297.945 340.768 297.028 341.241C296.122 341.655 294.965 342.344 293.557 343.309C290.917 345.118 289.467 347.379 289.206 350.093C288.98 352.782 289.844 355.552 291.798 358.403C292.883 359.987 294.005 361.209 295.164 362.07C296.358 362.907 297.543 363.466 298.718 363.747C299.929 364.003 301.094 364.006 302.215 363.755C303.372 363.48 304.425 363.017 305.375 362.365C306.677 361.473 307.753 360.477 308.603 359.377C309.429 358.242 309.99 357.212 310.286 356.285L299.287 340.236ZM343.322 323.868C344.817 326.05 345.851 328.238 346.424 330.432C346.996 332.626 347.136 334.755 346.843 336.818C346.585 338.856 345.905 340.771 344.804 342.56C343.678 344.314 342.183 345.83 340.317 347.108C338.452 348.387 336.498 349.234 334.456 349.651C332.39 350.033 330.342 349.988 328.312 349.517C326.318 349.021 324.401 348.111 322.561 346.786C320.722 345.46 319.054 343.706 317.559 341.524C316.088 339.377 315.066 337.207 314.493 335.013C313.897 332.784 313.727 330.65 313.985 328.611C314.278 326.548 314.988 324.639 316.113 322.885C317.215 321.096 318.698 319.562 320.563 318.284C322.429 317.006 324.394 316.176 326.461 315.794C328.503 315.377 330.521 315.417 332.515 315.912C334.545 316.383 336.492 317.299 338.355 318.66C340.195 319.985 341.85 321.721 343.322 323.868ZM338.201 327.378C336.078 324.281 333.698 322.317 331.06 321.487C328.433 320.597 325.923 320.973 323.53 322.613C321.137 324.253 319.863 326.471 319.71 329.265C319.567 332.001 320.557 334.917 322.68 338.015C324.802 341.112 327.177 343.105 329.804 343.994C332.442 344.825 334.957 344.42 337.351 342.779C339.744 341.139 341.012 338.951 341.154 336.216C341.308 333.421 340.323 330.475 338.201 327.378Z" fill="#EFC48F"/>
<rect x="188.053" y="127.947" width="140.716" height="140.716" transform="rotate(45.3184 188.053 127.947)" fill="black"/>
<g filter="url(#filter0_d)">
<path d="M42.2193 334.467C43.7636 334.815 45.7474 335.359 48.1706 336.097C50.6367 336.857 53.3483 337.982 56.3056 339.474C58.4485 340.554 60.0973 341.762 61.2519 343.097C62.4282 344.389 63.2282 345.84 63.652 347.452C64.0601 347.389 64.6828 347.327 65.5202 347.265C66.3576 347.204 67.3342 347.239 68.45 347.372C69.5874 347.461 70.7996 347.67 72.0865 347.996C73.3949 348.279 74.7135 348.756 76.0421 349.426C78.6137 350.723 80.5192 352.168 81.7588 353.76C83.0201 355.31 83.7549 356.998 83.9633 358.823C84.2146 360.67 84.0148 362.612 83.3638 364.649C82.7557 366.708 81.8898 368.852 80.7659 371.08L71.2995 389.853L65.3207 386.838L74.1387 369.351C75.1329 367.38 75.8794 365.633 76.3784 364.11C76.9202 362.61 77.1502 361.247 77.0685 360.023C77.0297 358.821 76.6469 357.768 75.9201 356.864C75.2578 355.939 74.1981 355.108 72.7409 354.374C70.7265 353.358 68.9145 352.794 67.3049 352.681C65.7598 352.547 64.6435 352.575 63.9559 352.766C63.7368 354.053 63.378 355.404 62.8794 356.819C62.3809 358.234 61.7642 359.671 61.0294 361.128L51.563 379.9L45.5842 376.885L54.4022 359.399C55.3963 357.427 56.1429 355.68 56.6418 354.158C57.1407 352.635 57.3494 351.262 57.2677 350.038C57.2289 348.836 56.8461 347.783 56.1193 346.879C55.457 345.953 54.4187 345.134 53.0043 344.421C52.4043 344.118 51.7506 343.816 51.0432 343.513C50.3359 343.21 49.6392 342.939 48.953 342.701C48.3314 342.441 47.7418 342.224 47.1843 342.051C46.6268 341.877 46.2515 341.768 46.0584 341.725L31.8264 369.947L25.8476 366.932L42.2193 334.467ZM87.1999 397.871L81.221 394.856L98.079 361.426L104.058 364.441L87.1999 397.871ZM104.084 356.874C103.012 356.334 102.264 355.526 101.838 354.451C101.477 353.355 101.599 352.207 102.204 351.007C102.809 349.807 103.649 349.048 104.723 348.73C105.862 348.39 106.967 348.491 108.039 349.031C109.11 349.571 109.827 350.389 110.188 351.485C110.613 352.56 110.524 353.698 109.919 354.898C109.313 356.098 108.441 356.867 107.302 357.207C106.228 357.525 105.155 357.414 104.084 356.874ZM113.853 370.59C115.398 370.939 117.403 371.493 119.869 372.253C122.335 373.012 125.046 374.138 128.004 375.629C130.661 376.969 132.674 378.468 134.042 380.126C135.432 381.74 136.295 383.493 136.632 385.383C137.034 387.252 136.973 389.237 136.451 391.339C135.928 393.441 135.094 395.628 133.949 397.899L124.483 416.672L118.504 413.657L127.322 396.17C128.359 394.113 129.095 392.28 129.53 390.672C130.008 389.085 130.152 387.679 129.963 386.455C129.774 385.231 129.241 384.156 128.364 383.23C127.509 382.261 126.288 381.376 124.702 380.577C124.06 380.252 123.384 379.939 122.677 379.636C121.97 379.333 121.273 379.062 120.587 378.824C119.965 378.564 119.376 378.347 118.818 378.174C118.303 378.022 117.928 377.913 117.692 377.848L103.46 406.071L97.4815 403.056L113.853 370.59ZM140.376 424.686L134.397 421.671L151.255 388.241L157.234 391.256L140.376 424.686ZM157.26 383.689C156.188 383.149 155.44 382.342 155.014 381.267C154.653 380.171 154.775 379.023 155.38 377.823C155.985 376.623 156.825 375.863 157.899 375.545C159.038 375.206 160.143 375.306 161.215 375.846C162.286 376.387 163.003 377.205 163.364 378.301C163.789 379.376 163.7 380.513 163.095 381.713C162.489 382.913 161.617 383.683 160.479 384.022C159.404 384.341 158.331 384.23 157.26 383.689Z" fill="#EFC48F"/>
<path d="M42.2193 334.467L42.4395 333.491L41.6779 333.319L41.3264 334.016L42.2193 334.467ZM48.1706 336.097L48.465 335.141L48.462 335.14L48.1706 336.097ZM61.2519 343.097L60.4956 343.751L60.5039 343.761L60.5125 343.77L61.2519 343.097ZM63.652 347.452L62.6849 347.706L62.9141 348.578L63.8046 348.44L63.652 347.452ZM65.5202 347.265L65.5935 348.262L65.5935 348.262L65.5202 347.265ZM68.45 347.372L68.332 348.365L68.3517 348.367L68.3714 348.369L68.45 347.372ZM72.0865 347.996L71.8406 348.965L71.8576 348.97L71.8747 348.973L72.0865 347.996ZM81.7588 353.76L80.9697 354.375L80.9763 354.383L80.9832 354.392L81.7588 353.76ZM83.9633 358.823L82.9698 358.937L82.971 358.947L82.9725 358.958L83.9633 358.823ZM83.3638 364.649L82.4113 364.345L82.4079 364.356L82.4048 364.366L83.3638 364.649ZM71.2995 389.853L70.8493 390.746L71.7422 391.196L72.1924 390.303L71.2995 389.853ZM65.3207 386.838L64.4278 386.387L63.9775 387.28L64.8704 387.731L65.3207 386.838ZM76.3784 364.11L75.4378 363.771L75.4327 363.785L75.4281 363.799L76.3784 364.11ZM77.0685 360.023L76.069 360.056L76.0696 360.073L76.0707 360.09L77.0685 360.023ZM75.9201 356.864L75.1069 357.446L75.1232 357.469L75.1407 357.49L75.9201 356.864ZM67.3049 352.681L67.2185 353.677L67.2267 353.678L67.235 353.678L67.3049 352.681ZM63.9559 352.766L63.6884 351.802L63.0766 351.972L62.97 352.598L63.9559 352.766ZM62.8794 356.819L61.9363 356.487L61.9363 356.487L62.8794 356.819ZM51.563 379.9L51.1127 380.793L52.0056 381.243L52.4559 380.35L51.563 379.9ZM45.5842 376.885L44.6913 376.435L44.241 377.328L45.1339 377.778L45.5842 376.885ZM56.6418 354.158L57.5921 354.469L57.5921 354.469L56.6418 354.158ZM57.2677 350.038L56.2682 350.071L56.2688 350.088L56.2699 350.105L57.2677 350.038ZM56.1193 346.879L55.3061 347.461L55.3224 347.484L55.3399 347.505L56.1193 346.879ZM51.0432 343.513L50.6496 344.432L50.6496 344.432L51.0432 343.513ZM48.953 342.701L48.5675 343.623L48.5958 343.635L48.6247 343.645L48.953 342.701ZM47.1843 342.051L46.8869 343.005L46.8869 343.005L47.1843 342.051ZM46.0584 341.725L46.2787 340.749L45.5171 340.577L45.1655 341.274L46.0584 341.725ZM31.8264 369.947L31.3762 370.84L32.2691 371.29L32.7193 370.398L31.8264 369.947ZM25.8476 366.932L24.9547 366.482L24.5044 367.375L25.3973 367.825L25.8476 366.932ZM41.999 335.442C43.5097 335.783 45.4674 336.319 47.8792 337.054L48.462 335.14C46.0274 334.399 44.0176 333.848 42.4395 333.491L41.999 335.442ZM47.8762 337.053C50.2761 337.792 52.9349 338.894 55.8553 340.366L56.7558 338.581C53.7618 337.071 50.9972 335.921 48.465 335.141L47.8762 337.053ZM55.8553 340.366C57.921 341.408 59.4512 342.544 60.4956 343.751L62.0083 342.443C60.7434 340.98 58.976 339.7 56.7558 338.581L55.8553 340.366ZM60.5125 343.77C61.5856 344.949 62.3041 346.258 62.6849 347.706L64.6191 347.198C64.1523 345.423 63.2707 343.829 61.9914 342.424L60.5125 343.77ZM63.8046 348.44C64.1715 348.384 64.7615 348.324 65.5935 348.262L65.4469 346.268C64.6042 346.33 63.9487 346.394 63.4994 346.464L63.8046 348.44ZM65.5935 348.262C66.3499 348.207 67.2599 348.237 68.332 348.365L68.5681 346.379C67.4086 346.241 66.3653 346.2 65.4469 346.268L65.5935 348.262ZM68.3714 348.369C69.4441 348.453 70.5999 348.651 71.8406 348.965L72.3323 347.027C70.9992 346.688 69.7308 346.47 68.5287 346.375L68.3714 348.369ZM71.8747 348.973C73.0918 349.237 74.3305 349.683 75.5919 350.319L76.4924 348.533C75.0964 347.829 73.6981 347.322 72.2982 347.019L71.8747 348.973ZM75.5919 350.319C78.0837 351.576 79.8513 352.938 80.9697 354.375L82.548 353.146C81.1872 351.398 79.1437 349.87 76.4924 348.533L75.5919 350.319ZM80.9832 354.392C82.1348 355.807 82.7849 357.318 82.9698 358.937L84.9569 358.71C84.7249 356.678 83.9053 354.814 82.5345 353.129L80.9832 354.392ZM82.9725 358.958C83.2009 360.637 83.0236 362.429 82.4113 364.345L84.3164 364.954C85.0059 362.796 85.2283 360.703 84.9542 358.689L82.9725 358.958ZM82.4048 364.366C81.8162 366.359 80.9741 368.447 79.873 370.63L81.6588 371.531C82.8054 369.257 83.6953 367.057 84.3229 364.933L82.4048 364.366ZM79.873 370.63L70.4066 389.402L72.1924 390.303L81.6588 371.531L79.873 370.63ZM71.7498 388.96L65.771 385.945L64.8704 387.731L70.8493 390.746L71.7498 388.96ZM66.2136 387.288L75.0316 369.801L73.2458 368.901L64.4278 386.387L66.2136 387.288ZM75.0316 369.801C76.0406 367.801 76.8095 366.006 77.3286 364.422L75.4281 363.799C74.9494 365.26 74.2252 366.959 73.2458 368.901L75.0316 369.801ZM77.319 364.45C77.8942 362.857 78.1595 361.353 78.0663 359.957L76.0707 360.09C76.1409 361.141 75.9461 362.363 75.4378 363.771L77.319 364.45ZM78.068 359.991C78.0224 358.581 77.5674 357.317 76.6995 356.237L75.1407 357.49C75.7264 358.219 76.0369 359.061 76.069 360.056L78.068 359.991ZM76.7333 356.282C75.945 355.181 74.7341 354.259 73.1911 353.481L72.2906 355.267C73.662 355.958 74.5706 356.697 75.1069 357.446L76.7333 356.282ZM73.1911 353.481C71.1021 352.427 69.1584 351.808 67.3748 351.683L67.235 353.678C68.6706 353.779 70.3509 354.288 72.2906 355.267L73.1911 353.481ZM67.3914 351.684C65.8338 351.549 64.562 351.56 63.6884 351.802L64.2233 353.729C64.7249 353.59 65.6858 353.544 67.2185 353.677L67.3914 351.684ZM62.97 352.598C62.7618 353.822 62.4187 355.118 61.9363 356.487L63.8226 357.152C64.3373 355.691 64.7118 354.284 64.9417 352.934L62.97 352.598ZM61.9363 356.487C61.4531 357.858 60.8537 359.255 60.1365 360.677L61.9223 361.578C62.6747 360.086 63.3087 358.61 63.8226 357.152L61.9363 356.487ZM60.1365 360.677L50.6701 379.45L52.4559 380.35L61.9223 361.578L60.1365 360.677ZM52.0132 379.007L46.0344 375.992L45.1339 377.778L51.1127 380.793L52.0132 379.007ZM46.477 377.335L55.295 359.849L53.5093 358.948L44.6913 376.435L46.477 377.335ZM55.295 359.849C56.304 357.848 57.073 356.053 57.5921 354.469L55.6915 353.846C55.2128 355.307 54.4886 357.006 53.5093 358.948L55.295 359.849ZM57.5921 354.469C58.1193 352.86 58.3579 351.356 58.2655 349.972L56.2699 350.105C56.3409 351.168 56.1622 352.41 55.6915 353.846L57.5921 354.469ZM58.2672 350.006C58.2216 348.596 57.7666 347.332 56.8987 346.252L55.3399 347.505C55.9255 348.234 56.2361 349.076 56.2682 350.071L58.2672 350.006ZM56.9325 346.297C56.1465 345.199 54.9598 344.287 53.4546 343.528L52.5541 345.314C53.8775 345.981 54.7674 346.708 55.3061 347.461L56.9325 346.297ZM53.4546 343.528C52.8336 343.215 52.1607 342.903 51.4369 342.593L50.6496 344.432C51.3405 344.728 51.975 345.022 52.5541 345.314L53.4546 343.528ZM51.4369 342.593C50.7094 342.282 49.9908 342.003 49.2814 341.756L48.6247 343.645C49.2875 343.876 49.9624 344.138 50.6496 344.432L51.4369 342.593ZM49.3386 341.778C48.6923 341.508 48.0732 341.28 47.4816 341.096L46.8869 343.005C47.4105 343.168 47.9705 343.374 48.5675 343.623L49.3386 341.778ZM47.4816 341.096C46.93 340.924 46.517 340.803 46.2787 340.749L45.8382 342.7C45.9859 342.734 46.3235 342.83 46.8869 343.005L47.4816 341.096ZM45.1655 341.274L30.9335 369.497L32.7193 370.398L46.9513 342.175L45.1655 341.274ZM32.2767 369.054L26.2979 366.039L25.3973 367.825L31.3762 370.84L32.2767 369.054ZM26.7405 367.383L43.1122 334.917L41.3264 334.016L24.9547 366.482L26.7405 367.383ZM87.1999 397.871L86.7496 398.764L87.6425 399.214L88.0927 398.321L87.1999 397.871ZM81.221 394.856L80.3281 394.406L79.8779 395.298L80.7708 395.749L81.221 394.856ZM98.079 361.426L98.5292 360.533L97.6363 360.083L97.1861 360.976L98.079 361.426ZM104.058 364.441L104.951 364.891L105.401 363.998L104.508 363.548L104.058 364.441ZM101.838 354.451L100.888 354.764L100.897 354.792L100.908 354.82L101.838 354.451ZM104.723 348.73L105.007 349.689L105.009 349.688L104.723 348.73ZM110.188 351.485L109.238 351.798L109.247 351.826L109.258 351.854L110.188 351.485ZM107.302 357.207L107.587 358.166L107.588 358.165L107.302 357.207ZM87.6501 396.978L81.6713 393.963L80.7708 395.749L86.7496 398.764L87.6501 396.978ZM82.1139 395.306L98.9719 361.876L97.1861 360.976L80.3281 394.406L82.1139 395.306ZM97.6287 362.319L103.608 365.334L104.508 363.548L98.5292 360.533L97.6287 362.319ZM103.165 363.991L86.307 397.421L88.0927 398.321L104.951 364.891L103.165 363.991ZM104.534 355.981C103.672 355.546 103.099 354.921 102.768 354.083L100.908 354.82C101.428 356.131 102.352 357.121 103.633 357.767L104.534 355.981ZM102.788 354.138C102.523 353.336 102.59 352.463 103.097 351.458L101.311 350.557C100.608 351.952 100.43 353.375 100.888 354.764L102.788 354.138ZM103.097 351.458C103.605 350.451 104.249 349.913 105.007 349.689L104.439 347.771C103.048 348.183 102.014 349.164 101.311 350.557L103.097 351.458ZM105.009 349.688C105.901 349.422 106.743 349.497 107.589 349.924L108.489 348.138C107.192 347.484 105.824 347.358 104.438 347.771L105.009 349.688ZM107.589 349.924C108.434 350.35 108.963 350.965 109.238 351.798L111.138 351.172C110.69 349.813 109.787 348.792 108.489 348.138L107.589 349.924ZM109.258 351.854C109.561 352.619 109.525 353.457 109.026 354.447L110.811 355.348C111.522 353.938 111.666 352.502 111.117 351.117L109.258 351.854ZM109.026 354.447C108.526 355.437 107.856 355.998 107.017 356.249L107.588 358.165C109.026 357.736 110.1 356.758 110.811 355.348L109.026 354.447ZM107.018 356.248C106.207 356.489 105.396 356.416 104.534 355.981L103.633 357.767C104.915 358.413 106.25 358.562 107.587 358.166L107.018 356.248ZM113.853 370.59L114.073 369.614L113.312 369.443L112.96 370.14L113.853 370.59ZM134.042 380.126L133.271 380.762L133.277 380.77L133.284 380.778L134.042 380.126ZM136.632 385.383L135.648 385.558L135.651 385.576L135.654 385.593L136.632 385.383ZM124.483 416.672L124.032 417.565L124.925 418.015L125.376 417.122L124.483 416.672ZM118.504 413.657L117.611 413.206L117.161 414.099L118.054 414.55L118.504 413.657ZM129.53 390.672L128.573 390.383L128.568 390.397L128.565 390.411L129.53 390.672ZM129.963 386.455L128.975 386.608L128.975 386.608L129.963 386.455ZM128.364 383.23L127.615 383.891L127.626 383.904L127.638 383.917L128.364 383.23ZM122.677 379.636L122.283 380.555L122.283 380.555L122.677 379.636ZM120.587 378.824L120.201 379.747L120.23 379.758L120.259 379.768L120.587 378.824ZM118.818 378.174L119.116 377.219L119.108 377.217L119.101 377.215L118.818 378.174ZM117.692 377.848L117.959 376.884L117.169 376.666L116.799 377.398L117.692 377.848ZM103.46 406.071L103.01 406.963L103.903 407.414L104.353 406.521L103.46 406.071ZM97.4815 403.056L96.5886 402.605L96.1383 403.498L97.0312 403.948L97.4815 403.056ZM113.633 371.565C115.142 371.906 117.12 372.452 119.574 373.208L120.163 371.297C117.686 370.534 115.653 369.971 114.073 369.614L113.633 371.565ZM119.574 373.208C121.974 373.948 124.633 375.049 127.553 376.522L128.454 374.736C125.46 373.226 122.695 372.077 120.163 371.297L119.574 373.208ZM127.553 376.522C130.132 377.822 132.018 379.244 133.271 380.762L134.813 379.489C133.33 377.692 131.19 376.116 128.454 374.736L127.553 376.522ZM133.284 380.778C134.57 382.272 135.345 383.863 135.648 385.558L137.617 385.207C137.245 383.122 136.293 381.208 134.8 379.473L133.284 380.778ZM135.654 385.593C136.02 387.294 135.971 389.124 135.48 391.098L137.421 391.58C137.975 389.35 138.047 387.21 137.61 385.173L135.654 385.593ZM135.48 391.098C134.979 393.116 134.174 395.233 133.056 397.449L134.842 398.35C136.015 396.023 136.878 393.766 137.421 391.58L135.48 391.098ZM133.056 397.449L123.59 416.221L125.376 417.122L134.842 398.35L133.056 397.449ZM124.933 415.779L118.954 412.764L118.054 414.55L124.032 417.565L124.933 415.779ZM119.397 414.107L128.215 396.62L126.429 395.72L117.611 413.206L119.397 414.107ZM128.215 396.62C129.272 394.524 130.038 392.626 130.495 390.933L128.565 390.411C128.153 391.934 127.446 393.702 126.429 395.72L128.215 396.62ZM130.488 390.96C130.995 389.276 131.17 387.715 130.951 386.302L128.975 386.608C129.135 387.643 129.021 388.893 128.573 390.383L130.488 390.96ZM130.951 386.302C130.73 384.871 130.103 383.611 129.09 382.542L127.638 383.917C128.38 384.7 128.818 385.59 128.975 386.608L130.951 386.302ZM129.114 382.568C128.149 381.475 126.812 380.521 125.153 379.684L124.252 381.47C125.764 382.232 126.868 383.046 127.615 383.891L129.114 382.568ZM125.153 379.684C124.49 379.35 123.796 379.027 123.071 378.717L122.283 380.555C122.973 380.851 123.629 381.155 124.252 381.47L125.153 379.684ZM123.071 378.717C122.343 378.405 121.625 378.126 120.915 377.879L120.259 379.768C120.921 379.999 121.596 380.261 122.283 380.555L123.071 378.717ZM120.972 377.901C120.326 377.631 119.707 377.403 119.116 377.219L118.521 379.129C119.044 379.292 119.604 379.497 120.201 379.747L120.972 377.901ZM119.101 377.215C118.586 377.063 118.204 376.952 117.959 376.884L117.426 378.812C117.653 378.875 118.021 378.981 118.535 379.133L119.101 377.215ZM116.799 377.398L102.567 405.62L104.353 406.521L118.585 378.298L116.799 377.398ZM103.911 405.178L97.9317 402.163L97.0312 403.948L103.01 406.963L103.911 405.178ZM98.3744 403.506L114.746 371.04L112.96 370.14L96.5886 402.605L98.3744 403.506ZM140.376 424.686L139.926 425.579L140.819 426.029L141.269 425.136L140.376 424.686ZM134.397 421.671L133.504 421.221L133.054 422.114L133.947 422.564L134.397 421.671ZM151.255 388.241L151.705 387.348L150.812 386.898L150.362 387.791L151.255 388.241ZM157.234 391.256L158.127 391.707L158.577 390.814L157.684 390.363L157.234 391.256ZM155.014 381.267L154.064 381.58L154.073 381.608L154.084 381.635L155.014 381.267ZM157.899 375.545L158.183 376.504L158.185 376.503L157.899 375.545ZM163.364 378.301L162.414 378.614L162.423 378.642L162.434 378.669L163.364 378.301ZM160.479 384.022L160.763 384.981L160.764 384.981L160.479 384.022ZM140.826 423.793L134.847 420.778L133.947 422.564L139.926 425.579L140.826 423.793ZM135.29 422.122L152.148 388.692L150.362 387.791L133.504 421.221L135.29 422.122ZM150.805 389.134L156.784 392.149L157.684 390.363L151.705 387.348L150.805 389.134ZM156.341 390.806L139.483 424.236L141.269 425.136L158.127 391.707L156.341 390.806ZM157.71 382.797C156.848 382.362 156.276 381.736 155.944 380.899L154.084 381.635C154.604 382.947 155.528 383.936 156.809 384.582L157.71 382.797ZM155.964 380.954C155.699 380.151 155.766 379.278 156.273 378.273L154.487 377.372C153.784 378.767 153.606 380.19 154.064 381.58L155.964 380.954ZM156.273 378.273C156.781 377.266 157.425 376.729 158.183 376.504L157.615 374.586C156.224 374.998 155.19 375.979 154.487 377.372L156.273 378.273ZM158.185 376.503C159.077 376.238 159.919 376.313 160.765 376.739L161.665 374.953C160.368 374.299 159 374.174 157.614 374.587L158.185 376.503ZM160.765 376.739C161.61 377.165 162.14 377.781 162.414 378.614L164.314 377.988C163.866 376.629 162.963 375.608 161.665 374.953L160.765 376.739ZM162.434 378.669C162.737 379.434 162.701 380.272 162.202 381.263L163.987 382.163C164.698 380.754 164.842 379.317 164.294 377.933L162.434 378.669ZM162.202 381.263C161.703 382.252 161.032 382.814 160.193 383.064L160.764 384.981C162.202 384.552 163.276 383.574 163.987 382.163L162.202 381.263ZM160.194 383.064C159.383 383.304 158.572 383.231 157.71 382.797L156.809 384.582C158.091 385.228 159.426 385.377 160.763 384.981L160.194 383.064Z" fill="black"/>
</g>
</g>
<defs>
<filter id="filter0_d" x="20.5044" y="333.319" width="148.123" height="100.71" filterUnits="userSpaceOnUse" color-interpolation-filters="sRGB">
<feFlood flood-opacity="0" result="BackgroundImageFix"/>
<feColorMatrix in="SourceAlpha" type="matrix" values="0 0 0 0 0 0 0 0 0 0 0 0 0 0 0 0 0 0 127 0"/>
<feOffset dy="4"/>
<feGaussianBlur stdDeviation="2"/>
<feColorMatrix type="matrix" values="0 0 0 0 0 0 0 0 0 0 0 0 0 0 0 0 0 0 0.25 0"/>
<feBlend mode="normal" in2="BackgroundImageFix" result="effect1_dropShadow"/>
<feBlend mode="normal" in="SourceGraphic" in2="effect1_dropShadow" result="shape"/>
</filter>
<clipPath id="clip0">
<rect width="375" height="662" fill="white"/>
</clipPath>
</defs>
</svg>
